<?xml version="1.0" standalone="no"?><!DOCTYPE svg PUBLIC "-//W3C//DTD SVG 1.1//EN" "http://www.w3.org/Graphics/SVG/1.1/DTD/svg11.dtd"><svg t="1685954972364" class="icon" viewBox="0 0 1024 1024" version="1.1" xmlns="http://www.w3.org/2000/svg" p-id="6279" xmlns:xlink="http://www.w3.org/1999/xlink" width="64" height="64"><path d="M509.672727 825.250909c-148.014545 0-268.567273-121.018182-268.567272-268.567273V507.345455h537.6v49.338181c0 148.014545-121.018182 268.567273-269.032728 268.567273zM847.127273 934.167273h-665.6c-13.032727 0-23.272727-10.24-23.272728-23.272728s10.24-23.272727 23.272728-23.272727h665.6c13.032727 0 23.272727 10.24 23.272727 23.272727s-10.24 23.272727-23.272727 23.272728zM381.672727 398.894545c-13.032727 0-23.272727-10.24-23.272727-23.272727 0-23.272727 10.705455-35.84 17.687273-44.683636 5.585455-6.516364 6.981818-8.378182 6.981818-14.429091s-1.396364-7.912727-6.981818-14.429091c-6.981818-8.378182-17.687273-21.410909-17.687273-44.683636s10.705455-35.84 17.687273-44.218182c5.12-6.516364 6.981818-8.378182 6.981818-14.429091 0-13.032727 10.24-23.272727 23.272727-23.272727s23.272727 10.24 23.272727 23.272727c0 23.272727-10.705455 35.84-17.687272 44.218182-5.12 6.516364-6.981818 8.378182-6.981818 14.429091s1.396364 7.912727 6.981818 14.429091c6.981818 8.378182 17.687273 21.410909 17.687272 44.218181s-10.705455 35.84-17.687272 44.683637c-5.585455 6.981818-6.981818 8.843636-6.981818 14.894545 0 12.567273-10.24 23.272727-23.272728 23.272727zM595.781818 398.894545c-13.032727 0-23.272727-10.24-23.272727-23.272727 0-23.272727 10.705455-35.84 17.687273-44.683636 5.585455-6.516364 6.981818-8.378182 6.981818-14.429091s-1.396364-7.912727-6.981818-14.429091c-6.981818-8.378182-17.687273-21.410909-17.687273-44.683636s10.705455-35.84 17.687273-44.218182c5.12-6.516364 6.981818-8.378182 6.981818-14.429091 0-13.032727 10.24-23.272727 23.272727-23.272727s23.272727 10.24 23.272727 23.272727c0 23.272727-10.705455 35.84-17.687272 44.218182-5.12 6.516364-6.981818 8.378182-6.981819 14.429091s1.396364 7.912727 6.981819 14.429091c6.981818 8.378182 17.687273 21.410909 17.687272 44.683636s-10.705455 35.84-17.687272 44.683636c-5.585455 6.516364-6.981818 8.378182-6.981819 14.429091 0 12.567273-10.24 23.272727-23.272727 23.272727zM487.330909 440.785455c-13.032727 0-23.272727-10.24-23.272727-23.272728 0-30.72 13.963636-47.010909 24.203636-59.112727 8.378182-10.24 13.032727-15.825455 13.032727-29.323636s-4.654545-19.083636-13.032727-29.323637c-10.24-12.101818-24.203636-28.392727-24.203636-59.112727s13.963636-47.010909 24.203636-59.112727c8.378182-10.24 13.032727-15.825455 13.032727-29.323637 0-13.032727 10.24-23.272727 23.272728-23.272727s23.272727 10.24 23.272727 23.272727c0 30.72-13.963636 47.010909-24.203636 59.112728-8.378182 10.24-13.032727 15.825455-13.032728 29.323636s4.654545 19.083636 13.032728 29.323636c10.24 12.101818 24.203636 28.392727 24.203636 59.112728s-13.963636 47.010909-24.203636 59.112727c-8.378182 10.24-13.032727 15.825455-13.032728 29.323636 0 12.567273-10.705455 23.272727-23.272727 23.272728z" fill="#fb923c" p-id="6280"></path><path d="M819.2 659.549091m-94.487273 0a94.487273 94.487273 0 1 0 188.974546 0 94.487273 94.487273 0 1 0-188.974546 0Z" fill="#fb923c" p-id="6281"></path><path d="M470.109091 828.043636h-13.963636c-161.047273 0-291.84-130.792727-291.84-291.84v-118.225454h598.10909v118.225454c0 161.047273-131.258182 291.84-292.305454 291.84z m-259.258182-363.52v71.68c0 135.447273 109.847273 245.294545 245.294546 245.294546h13.963636c135.447273 0 245.76-109.847273 245.76-245.294546v-71.68h-505.018182zM795.927273 899.723636h-665.6c-13.032727 0-23.272727-10.24-23.272728-23.272727s10.24-23.272727 23.272728-23.272727h665.6c13.032727 0 23.272727 10.24 23.272727 23.272727s-10.24 23.272727-23.272727 23.272727zM330.472727 350.487273c-13.032727 0-23.272727-10.24-23.272727-23.272728 0-23.272727 10.705455-35.84 17.687273-44.683636 5.585455-6.516364 6.981818-8.378182 6.981818-14.429091s-1.396364-7.912727-6.981818-14.429091c-6.981818-8.378182-17.687273-20.945455-17.687273-44.218182s10.705455-35.84 17.687273-44.218181c5.12-6.516364 6.981818-8.378182 6.981818-14.429091 0-13.032727 10.24-23.272727 23.272727-23.272728s23.272727 10.24 23.272727 23.272728c0 23.272727-10.705455 35.84-17.687272 44.218182-5.12 6.050909-6.981818 8.378182-6.981818 14.42909s1.396364 7.912727 6.981818 14.429091c6.981818 8.378182 17.687273 21.410909 17.687272 44.218182s-10.705455 35.84-17.687272 44.683637c-5.585455 6.516364-6.981818 8.378182-6.981818 14.42909 0 13.032727-10.24 23.272727-23.272728 23.272728zM544.581818 350.487273c-13.032727 0-23.272727-10.24-23.272727-23.272728 0-23.272727 10.705455-35.84 17.687273-44.683636 5.585455-6.516364 6.981818-8.378182 6.981818-14.429091s-1.396364-7.912727-6.981818-14.429091c-6.981818-8.378182-17.687273-21.410909-17.687273-44.683636s10.705455-35.84 17.687273-44.218182c5.12-6.516364 6.981818-8.378182 6.981818-14.429091 0-13.032727 10.24-23.272727 23.272727-23.272727s23.272727 10.24 23.272727 23.272727c0 23.272727-10.705455 35.84-17.687272 44.218182-5.12 6.516364-6.981818 8.378182-6.981819 14.429091s1.396364 7.912727 6.981819 14.429091c6.981818 8.378182 17.687273 21.410909 17.687272 44.683636s-10.705455 35.84-17.687272 44.683637c-5.585455 6.516364-6.981818 8.378182-6.981819 14.42909 0 13.032727-10.24 23.272727-23.272727 23.272728zM436.130909 392.378182c-13.032727 0-23.272727-10.24-23.272727-23.272727 0-30.72 13.963636-47.010909 24.203636-59.112728 8.378182-10.24 13.032727-15.825455 13.032727-29.323636s-4.654545-19.083636-13.032727-29.323636c-10.24-12.101818-24.203636-28.392727-24.203636-59.112728s13.963636-47.010909 24.203636-59.112727c8.378182-10.24 13.032727-15.825455 13.032727-29.323636 0-13.032727 10.24-23.272727 23.272728-23.272728s23.272727 10.24 23.272727 23.272728c0 30.72-13.963636 47.010909-24.203636 59.112727-8.378182 10.24-13.032727 15.825455-13.032728 29.323636s4.654545 19.083636 13.032728 29.323637c10.24 12.101818 24.203636 28.392727 24.203636 59.112727s-13.963636 47.010909-24.203636 59.112727c-8.378182 10.24-13.032727 15.825455-13.032728 29.323637 0 13.032727-10.705455 23.272727-23.272727 23.272727z" fill="#fb923c" p-id="6282"></path><path d="M784.756364 698.181818c-32.581818 0-64.232727-15.36-84.247273-40.96l36.770909-28.858182c11.636364 14.429091 29.323636 23.272727 47.941818 23.272728 33.512727 0 60.509091-26.996364 60.509091-60.509091s-26.996364-60.509091-60.509091-60.509091c-15.825455 0-28.392727 6.516364-35.84 12.101818l-27.461818-37.701818c19.083636-13.963636 40.96-21.410909 63.767273-21.410909 59.112727 0 107.054545 47.941818 107.054545 107.054545s-48.872727 107.52-107.985454 107.52z" fill="#fb923c" p-id="6283"></path></svg>